<svg width="152" height="126" viewBox="0 0 152 126" fill="none" xmlns="http://www.w3.org/2000/svg">
<path d="M40.0538 116.208C39.6218 116.702 39.015 117.175 38.2333 117.628C37.4721 118.08 36.5876 118.451 35.5796 118.739C34.5921 119.027 33.5327 119.171 32.4013 119.171C30.4676 119.171 28.719 118.718 27.1556 117.813C25.6127 116.887 24.3784 115.591 23.4527 113.925C22.5476 112.259 22.095 110.304 22.095 108.062C22.095 106.478 22.3727 105.017 22.9281 103.68C23.4836 102.343 24.255 101.181 25.2424 100.193C26.2298 99.2061 27.3613 98.4449 28.6367 97.9101C29.9121 97.3546 31.2596 97.0769 32.679 97.0769C33.8516 97.0769 34.9418 97.2621 35.9498 97.6323C36.9784 97.9821 37.8733 98.4449 38.6344 99.0209C39.4161 99.5763 40.023 100.173 40.455 100.811L38.2333 103.125C37.4721 102.343 36.6287 101.695 35.703 101.181C34.7773 100.667 33.7693 100.409 32.679 100.409C31.4447 100.409 30.2721 100.718 29.1613 101.335C28.071 101.952 27.1864 102.837 26.5076 103.989C25.8287 105.12 25.4893 106.478 25.4893 108.062C25.4893 109.79 25.8287 111.23 26.5076 112.382C27.207 113.534 28.1224 114.398 29.2538 114.974C30.4058 115.529 31.6401 115.807 32.9567 115.807C34.1704 115.807 35.2401 115.571 36.1658 115.097C37.0916 114.604 37.8321 114.069 38.3876 113.493L40.0538 116.208ZM58.8678 102.662V118.862H55.6586V116.363C55.1649 117.041 54.4346 117.679 53.4678 118.276C52.5009 118.872 51.3798 119.171 50.1044 119.171C48.7466 119.171 47.5021 118.811 46.3706 118.091C45.2598 117.371 44.3752 116.373 43.7169 115.097C43.0586 113.822 42.7295 112.361 42.7295 110.716C42.7295 109.07 43.0689 107.62 43.7478 106.365C44.4266 105.089 45.3626 104.102 46.5558 103.403C47.7489 102.683 49.1066 102.323 50.6289 102.323C51.7604 102.323 52.7478 102.569 53.5912 103.063C54.4552 103.557 55.1444 104.133 55.6586 104.791V102.662H58.8678ZM50.8449 116.239C51.8324 116.239 52.6964 116.003 53.4369 115.529C54.1775 115.036 54.7535 114.377 55.1649 113.555C55.5764 112.711 55.7821 111.765 55.7821 110.716C55.7821 109.687 55.5764 108.761 55.1649 107.939C54.7535 107.116 54.1775 106.468 53.4369 105.995C52.6964 105.501 51.8324 105.254 50.8449 105.254C49.8986 105.254 49.0552 105.491 48.3146 105.964C47.5741 106.437 46.9981 107.085 46.5866 107.908C46.1752 108.731 45.9695 109.667 45.9695 110.716C45.9695 111.765 46.1752 112.711 46.5866 113.555C46.9981 114.377 47.5741 115.036 48.3146 115.529C49.0552 116.003 49.8986 116.239 50.8449 116.239ZM72.3774 106.087C72.1717 105.984 71.9146 105.902 71.606 105.84C71.318 105.758 71.0094 105.717 70.6803 105.717C70.022 105.717 69.374 105.892 68.7363 106.241C68.0986 106.571 67.5637 107.054 67.1317 107.692C66.7203 108.309 66.5146 109.049 66.5146 109.913V118.862H63.3054V102.662H66.5146V105.717C66.9671 104.729 67.646 103.917 68.5511 103.279C69.4768 102.641 70.4437 102.323 71.4517 102.323C72.2128 102.323 72.7991 102.425 73.2106 102.631L72.3774 106.087ZM90.2394 96.0278V118.862H87.0611V116.579C86.5879 117.216 85.8885 117.813 84.9628 118.368C84.0371 118.903 82.9879 119.171 81.8154 119.171C80.3548 119.171 79.0382 118.811 77.8657 118.091C76.6931 117.371 75.7674 116.373 75.0885 115.097C74.4097 113.822 74.0702 112.372 74.0702 110.747C74.0702 109.101 74.4097 107.651 75.0885 106.396C75.7674 105.12 76.6828 104.123 77.8348 103.403C78.9868 102.683 80.2828 102.323 81.7228 102.323C82.8748 102.323 83.9137 102.559 84.8394 103.032C85.7857 103.505 86.5262 104.061 87.0611 104.699V96.0278H90.2394ZM82.2474 116.424C83.2348 116.424 84.0988 116.177 84.8394 115.684C85.5799 115.19 86.1559 114.511 86.5674 113.647C86.9788 112.783 87.1845 111.816 87.1845 110.747C87.1845 109.656 86.9788 108.689 86.5674 107.846C86.1559 106.982 85.5799 106.303 84.8394 105.809C84.0988 105.316 83.2348 105.069 82.2474 105.069C81.2805 105.069 80.4268 105.316 79.6862 105.809C78.9457 106.303 78.3594 106.982 77.9274 107.846C77.5159 108.689 77.3102 109.656 77.3102 110.747C77.3102 111.816 77.5159 112.783 77.9274 113.647C78.3594 114.511 78.9457 115.19 79.6862 115.684C80.4268 116.177 81.2805 116.424 82.2474 116.424ZM109.704 102.662V118.862H106.495V116.363C106.001 117.041 105.271 117.679 104.304 118.276C103.337 118.872 102.216 119.171 100.94 119.171C99.5826 119.171 98.338 118.811 97.2066 118.091C96.0957 117.371 95.2111 116.373 94.5529 115.097C93.8946 113.822 93.5654 112.361 93.5654 110.716C93.5654 109.07 93.9049 107.62 94.5837 106.365C95.2626 105.089 96.1986 104.102 97.3917 103.403C98.5849 102.683 99.9426 102.323 101.465 102.323C102.596 102.323 103.584 102.569 104.427 103.063C105.291 103.557 105.98 104.133 106.495 104.791V102.662H109.704ZM101.681 116.239C102.668 116.239 103.532 116.003 104.273 115.529C105.013 115.036 105.589 114.377 106.001 113.555C106.412 112.711 106.618 111.765 106.618 110.716C106.618 109.687 106.412 108.761 106.001 107.939C105.589 107.116 105.013 106.468 104.273 105.995C103.532 105.501 102.668 105.254 101.681 105.254C100.735 105.254 99.8911 105.491 99.1506 105.964C98.41 106.437 97.834 107.085 97.4226 107.908C97.0111 108.731 96.8054 109.667 96.8054 110.716C96.8054 111.765 97.0111 112.711 97.4226 113.555C97.834 114.377 98.41 115.036 99.1506 115.529C99.8911 116.003 100.735 116.239 101.681 116.239ZM122.596 102.384C124.036 102.384 125.322 102.744 126.453 103.464C127.605 104.164 128.511 105.141 129.169 106.396C129.827 107.651 130.156 109.101 130.156 110.747C130.156 112.372 129.827 113.822 129.169 115.097C128.511 116.352 127.616 117.34 126.484 118.06C125.353 118.78 124.088 119.14 122.689 119.14C121.537 119.14 120.488 118.893 119.541 118.399C118.616 117.905 117.885 117.34 117.351 116.702V125.651H114.141V102.631H117.351V105.007C117.824 104.328 118.533 103.721 119.48 103.187C120.426 102.652 121.465 102.384 122.596 102.384ZM122.164 105.316C121.197 105.316 120.333 105.552 119.572 106.025C118.832 106.499 118.245 107.147 117.813 107.969C117.402 108.772 117.196 109.697 117.196 110.747C117.196 111.775 117.402 112.701 117.813 113.524C118.245 114.347 118.832 115.005 119.572 115.499C120.333 115.972 121.197 116.208 122.164 116.208C123.131 116.208 123.985 115.972 124.725 115.499C125.466 115.005 126.042 114.347 126.453 113.524C126.885 112.701 127.101 111.775 127.101 110.747C127.101 109.697 126.885 108.772 126.453 107.969C126.042 107.147 125.466 106.499 124.725 106.025C123.985 105.552 123.131 105.316 122.164 105.316Z" fill="#4F4D4D"/>
<rect x="34" y="71.5517" width="83" height="14.3103" rx="7.15517" fill="#4F4D4D"/>
<rect x="34" y="51.5172" width="83" height="17.1724" rx="8.58621" fill="#4F4D4D"/>
<line x1="78.3621" y1="17.1724" x2="78.3621" y2="40.069" stroke="#4F4D4D" stroke-width="2.86207"/>
<rect x="34" y="34.3448" width="83" height="14.3103" rx="7.15517" fill="#4F4D4D"/>
<path d="M75.9355 3.87956C77.0567 2.08706 79.6675 2.08707 80.7886 3.87956L91.7337 21.3788C92.926 23.2851 91.5556 25.7586 89.3072 25.7586H67.4169C65.1685 25.7586 63.7981 23.2851 64.9904 21.3788L75.9355 3.87956Z" fill="#EE1045"/>
</svg>
